<svg width="64" height="64" viewBox="0 0 64 64" fill="none" xmlns="http://www.w3.org/2000/svg">
  <defs>
    <linearGradient id="g" x1="10" y1="8" x2="54" y2="56" gradientUnits="userSpaceOnUse">
      <stop stop-color="#9541e0" stop-opacity="0.95"/>
      <stop offset="1" stop-color="#7c30c7" stop-opacity="0.95"/>
    </linearGradient>
    <filter id="s" x="-20%" y="-20%" width="140%" height="140%" color-interpolation-filters="sRGB">
      <feDropShadow dx="0" dy="10" stdDeviation="8" flood-color="#9541e0" flood-opacity="0.18"/>
    </filter>
  </defs>

  <rect x="10" y="8" width="44" height="48" rx="14" fill="#0B0B10" fill-opacity="0.85" stroke="url(#g)" stroke-opacity="0.55" filter="url(#s)"/>

  <!-- chat bubble -->
  <path d="M22 22h20c3 0 5 2 5 5v9c0 3-2 5-5 5H32l-6 6v-6h-4c-3 0-5-2-5-5v-9c0-3 2-5 5-5Z"
        fill="#9541e0" fill-opacity="0.18" stroke="#CFA8FF" stroke-opacity="0.55" stroke-width="1.5"/>

  <!-- dots -->
  <circle cx="27" cy="32" r="2" fill="#CFA8FF" opacity="0.9"/>
  <circle cx="32" cy="32" r="2" fill="#CFA8FF" opacity="0.9"/>
  <circle cx="37" cy="32" r="2" fill="#CFA8FF" opacity="0.9"/>

  <!-- spark -->
  <path d="M46 18l1.5 3.5L51 23l-3.5 1.5L46 28l-1.5-3.5L41 23l3.5-1.5L46 18Z" fill="#9541e0" opacity="0.9"/>
</svg>
